{"cells":[{"cell_type":"markdown","metadata":{"id":"UsCPcxQ6C11R"},"source":["# Инструкция\n","\n","\n","---\n","Чтобы всё запустить нажмите: Ctl+F9<br>\n","Если в списки нет вашей версии Blender, то откройте код и добавте свой релиз и версию Blender.<br>\n","[`Список версий`](https://ftp.nluug.nl/pub/graphics/blender/release/)"]},{"cell_type":"code","execution_count":5,"metadata":{"cellView":"form","collapsed":true,"id":"or1RtXeHCoSs","executionInfo":{"status":"ok","timestamp":1733489933525,"user_tz":-180,"elapsed":2655,"user":{"displayName":"Иван Коваленко","userId":"17122287141912098940"}}},"outputs":[],"source":["#@title #<font color=#D2C3AC>Подготовка\n","\n","from google.colab import drive\n","drive.mount(\"/content/drive\")\n","\n","#cache=False#@param{type:\"boolean\"}\n","release=\"4.3\"#@param[\"4.3\",\"4.2\",\"4.1\",\"4.0\",\"3.6\",\"3.5\",\"3.4\",\"3.3\",\"3.2\",\"3.1\",\"3.0\",\"2.93\",\"2.83\"]\n","version=\"4.3.0\"#@param[\"4.3.0\",\"4.2.3\",\"4.1.1\",\"4.0.2\",\"3.6.17\",\"3.5.1\",\"3.4.1\",\"3.3.21\",\"3.2.2\",\"3.1.2\",\"3.0.1\",\"2.93.18\",\"2.83.20\"]\n","download_blender=False#@param{type:\"boolean\"}\n","%cd \"/content/drive/MyDrive/\"\n","!mkdir blender-web\n","%cd \"/content/drive/MyDrive/blender-web/\"\n","if download_blender == True:\n","  !wget -c \"https://download.blender.org/release/Blender{release}/blender-{version}-linux-x64.tar.xz\"\n","  !tar -xkvf \"blender-{version}-linux-x64.tar.xz\"\n","!chmod +x blender-{version}-linux-x64/blender\n","\n","from IPython.display import clear_output\n","clear_output()"]},{"cell_type":"code","execution_count":6,"metadata":{"id":"QD1KqLHr70gb","colab":{"base_uri":"https://localhost:8080/"},"executionInfo":{"status":"ok","timestamp":1733489963717,"user_tz":-180,"elapsed":17827,"user":{"displayName":"Иван Коваленко","userId":"17122287141912098940"}},"outputId":"cec76de0-c3bc-409a-f7bf-43d7e2df9eb5"},"outputs":[{"output_type":"stream","name":"stdout","text":["^C\n"]}],"source":["#@title #<font color=#D2C3AC>Рендер\n","file_name=\"room-test\"#@param{type:\"string\"}\n","device=\"OPTIX\"#@param[\"CUDA\",\"OPTIX\", \"CPU\"]\n","animation=True#@param{type:\"boolean\"}\n","frame_start=308#@param{type:\"number\"}\n","frame_end=600#@param{type:\"number\"}\n","\n","if animation==True:\n","  !./blender-{version}-linux-x64/blender -b \"/content/drive/MyDrive/blender-web/{file_name}.blend\" -o \"/content/drive/MyDrive/blender-web/render/{file_name}/{file_name}\" -s {frame_start} -e {frame_end} -a -- --cycles-device {device}\n","else:\n","  !./blender-{version}-linux-x64/blender -b \"/content/drive/MyDrive/blender-web/{file_name}.blend\" -o \"/content/drive/MyDrive/blender-web/render/{file_name}/{file_name}\" -f {frame_start} -- --cycles-device {device}"]},{"cell_type":"code","execution_count":8,"metadata":{"colab":{"base_uri":"https://localhost:8080/"},"id":"gjyq00dx8F9g","executionInfo":{"status":"ok","timestamp":1733490395889,"user_tz":-180,"elapsed":12235,"user":{"displayName":"Иван Коваленко","userId":"17122287141912098940"}},"outputId":"b1f6f5d0-cfb8-4486-9800-921688451eca"},"outputs":[{"output_type":"stream","name":"stdout","text":["ffmpeg version 4.4.2-0ubuntu0.22.04.1 Copyright (c) 2000-2021 the FFmpeg developers\n","  built with gcc 11 (Ubuntu 11.2.0-19ubuntu1)\n","  configuration: --prefix=/usr --extra-version=0ubuntu0.22.04.1 --toolchain=hardened --libdir=/usr/lib/x86_64-linux-gnu --incdir=/usr/include/x86_64-linux-gnu --arch=amd64 --enable-gpl --disable-stripping --enable-gnutls --enable-ladspa --enable-libaom --enable-libass --enable-libbluray --enable-libbs2b --enable-libcaca --enable-libcdio --enable-libcodec2 --enable-libdav1d --enable-libflite --enable-libfontconfig --enable-libfreetype --enable-libfribidi --enable-libgme --enable-libgsm --enable-libjack --enable-libmp3lame --enable-libmysofa --enable-libopenjpeg --enable-libopenmpt --enable-libopus --enable-libpulse --enable-librabbitmq --enable-librubberband --enable-libshine --enable-libsnappy --enable-libsoxr --enable-libspeex --enable-libsrt --enable-libssh --enable-libtheora --enable-libtwolame --enable-libvidstab --enable-libvorbis --enable-libvpx --enable-libwebp --enable-libx265 --enable-libxml2 --enable-libxvid --enable-libzimg --enable-libzmq --enable-libzvbi --enable-lv2 --enable-omx --enable-openal --enable-opencl --enable-opengl --enable-sdl2 --enable-pocketsphinx --enable-librsvg --enable-libmfx --enable-libdc1394 --enable-libdrm --enable-libiec61883 --enable-chromaprint --enable-frei0r --enable-libx264 --enable-shared\n","  libavutil      56. 70.100 / 56. 70.100\n","  libavcodec     58.134.100 / 58.134.100\n","  libavformat    58. 76.100 / 58. 76.100\n","  libavdevice    58. 13.100 / 58. 13.100\n","  libavfilter     7.110.100 /  7.110.100\n","  libswscale      5.  9.100 /  5.  9.100\n","  libswresample   3.  9.100 /  3.  9.100\n","  libpostproc    55.  9.100 / 55.  9.100\n","\u001b[0;35m[png_pipe @ 0x5ce05b378080] \u001b[0m\u001b[0;33mStream #0: not enough frames to estimate rate; consider increasing probesize\n","\u001b[0mInput #0, png_pipe, from 'pipe:':\n","  Duration: N/A, bitrate: N/A\n","  Stream #0:0: Video: png, rgb24(pc), 1920x1080 [SAR 2834:2834 DAR 16:9], 30 fps, 30 tbr, 30 tbn, 30 tbc\n","Stream mapping:\n","  Stream #0:0 -> #0:0 (png (native) -> h264 (libx264))\n","\u001b[1;36m[libx264 @ 0x5ce05b37fcc0] \u001b[0musing SAR=1/1\n","\u001b[1;36m[libx264 @ 0x5ce05b37fcc0] \u001b[0musing cpu capabilities: MMX2 SSE2Fast SSSE3 SSE4.2 AVX FMA3 BMI2 AVX2\n","\u001b[1;36m[libx264 @ 0x5ce05b37fcc0] \u001b[0mprofile High 4:4:4 Predictive, level 4.0, 4:4:4, 8-bit\n","\u001b[1;36m[libx264 @ 0x5ce05b37fcc0] \u001b[0m264 - core 163 r3060 5db6aa6 - H.264/MPEG-4 AVC codec - Copyleft 2003-2021 - http://www.videolan.org/x264.html - options: cabac=1 ref=3 deblock=1:0:0 analyse=0x3:0x113 me=hex subme=7 psy=1 psy_rd=1.00:0.00 mixed_ref=1 me_range=16 chroma_me=1 trellis=1 8x8dct=1 cqm=0 deadzone=21,11 fast_pskip=1 chroma_qp_offset=4 threads=3 lookahead_threads=1 sliced_threads=0 nr=0 decimate=1 interlaced=0 bluray_compat=0 constrained_intra=0 bframes=3 b_pyramid=2 b_adapt=1 b_bias=0 direct=1 weightb=1 open_gop=0 weightp=2 keyint=250 keyint_min=25 scenecut=40 intra_refresh=0 rc_lookahead=40 rc=crf mbtree=1 crf=23.0 qcomp=0.60 qpmin=0 qpmax=69 qpstep=4 ip_ratio=1.40 aq=1:1.00\n","Output #0, mp4, to 'room-test.mp4':\n","  Metadata:\n","    encoder         : Lavf58.76.100\n","  Stream #0:0: Video: h264 (avc1 / 0x31637661), yuv444p(tv, progressive), 1920x1080 [SAR 1:1 DAR 16:9], q=2-31, 30 fps, 15360 tbn\n","    Metadata:\n","      encoder         : Lavc58.134.100 libx264\n","    Side data:\n","      cpb: bitrate max/min/avg: 0/0/0 buffer size: 0 vbv_delay: N/A\n","frame=   42 fps=3.9 q=-1.0 Lsize=     476kB time=00:00:01.30 bitrate=2997.8kbits/s speed=0.121x    \n","video:474kB audio:0kB subtitle:0kB other streams:0kB global headers:0kB muxing overhead: 0.284490%\n","\u001b[1;36m[libx264 @ 0x5ce05b37fcc0] \u001b[0mframe I:1     Avg QP:21.99  size:109078\n","\u001b[1;36m[libx264 @ 0x5ce05b37fcc0] \u001b[0mframe P:12    Avg QP:22.89  size: 19350\n","\u001b[1;36m[libx264 @ 0x5ce05b37fcc0] \u001b[0mframe B:29    Avg QP:25.67  size:  4959\n","\u001b[1;36m[libx264 @ 0x5ce05b37fcc0] \u001b[0mconsecutive B-frames:  4.8%  9.5%  0.0% 85.7%\n","\u001b[1;36m[libx264 @ 0x5ce05b37fcc0] \u001b[0mmb I  I16..4: 12.0% 62.2% 25.7%\n","\u001b[1;36m[libx264 @ 0x5ce05b37fcc0] \u001b[0mmb P  I16..4:  0.5%  2.6%  0.6%  P16..4: 46.5% 13.8%  5.2%  0.0%  0.0%    skip:30.8%\n","\u001b[1;36m[libx264 @ 0x5ce05b37fcc0] \u001b[0mmb B  I16..4:  0.0%  0.0%  0.0%  B16..8: 41.5%  1.7%  0.3%  direct: 0.3%  skip:56.2%  L0:52.6% L1:47.2% BI: 0.2%\n","\u001b[1;36m[libx264 @ 0x5ce05b37fcc0] \u001b[0m8x8 transform intra:64.3% inter:92.0%\n","\u001b[1;36m[libx264 @ 0x5ce05b37fcc0] \u001b[0mcoded y,u,v intra: 73.3% 20.3% 18.3% inter: 5.6% 0.6% 0.6%\n","\u001b[1;36m[libx264 @ 0x5ce05b37fcc0] \u001b[0mi16 v,h,dc,p:  5% 85%  3%  7%\n","\u001b[1;36m[libx264 @ 0x5ce05b37fcc0] \u001b[0mi8 v,h,dc,ddl,ddr,vr,hd,vl,hu: 22% 13% 16%  6%  8% 11% 10%  8%  5%\n","\u001b[1;36m[libx264 @ 0x5ce05b37fcc0] \u001b[0mi4 v,h,dc,ddl,ddr,vr,hd,vl,hu: 21% 25%  8%  5% 11% 12%  9%  5%  4%\n","\u001b[1;36m[libx264 @ 0x5ce05b37fcc0] \u001b[0mWeighted P-Frames: Y:0.0% UV:0.0%\n","\u001b[1;36m[libx264 @ 0x5ce05b37fcc0] \u001b[0mref P L0: 84.4% 11.4%  3.0%  1.2%\n","\u001b[1;36m[libx264 @ 0x5ce05b37fcc0] \u001b[0mref B L0: 95.2%  3.6%  1.2%\n","\u001b[1;36m[libx264 @ 0x5ce05b37fcc0] \u001b[0mref B L1: 96.9%  3.1%\n","\u001b[1;36m[libx264 @ 0x5ce05b37fcc0] \u001b[0mkb/s:2771.96\n","\u001b[H\u001b[2JVideo is Done!!!\n"]}],"source":["#@title #<font color=#D2C3AC>Конвертация\n","zip_archive=False#@param{type:\"boolean\"}\n","video=True#@param{type:\"boolean\"}\n","FPS=30#@param{type:\"number\"}\n","if zip_archive == True:\n","  !zip {file_name}.zip -r render/{file_name}\n","  clear_output()\n","  print(\"Archive is Done!!!\")\n","if video == True:\n","  !rm {file_name}.mp4\n","  !cat render/{file_name}/* | ffmpeg -framerate 30 -i - {file_name}.mp4\n","  clear_output()\n","  print(\"Video is Done!!!\")"]}],"metadata":{"colab":{"provenance":[],"gpuType":"T4"},"kernelspec":{"display_name":"Python 3","name":"python3"},"language_info":{"name":"python"},"accelerator":"GPU"},"nbformat":4,"nbformat_minor":0}